<svg xmlns="http://www.w3.org/2000/svg" version="1.0" preserveAspectRatio="xMidYMid meet" viewBox="21 5 921 242">

<g transform="translate(0.000000,257.000000) scale(0.100000,-0.100000)" fill="#9a6593" stroke="none">
<path d="M1174 2505 c-18 -14 -18 -14 6 -15 13 0 124 -16 245 -36 121 -19 303 -49 405 -65 102 -16 195 -32 208 -34 12 -3 22 -2 22 3 0 11 -784 162 -846 162 -11 0 -29 -7 -40 -15z"/>
<path d="M1061 2468 c-18 -5 -31 -11 -29 -14 3 -2 85 -18 184 -34 623 -106 772 -131 796 -136 21 -4 43 -32 109 -137 92 -147 105 -166 89 -122 -39 104 -155 294 -184 300 -11 2 -217 36 -456 75 -239 39 -444 72 -455 74 -11 2 -35 -1 -54 -6z"/>
<path d="M920 2418 c-24 -11 -24 -11 15 -20 22 -5 101 -20 175 -33 74 -13 223 -40 330 -60 107 -20 218 -40 245 -45 28 -4 114 -20 193 -35 l143 -27 37 -57 c102 -152 256 -377 265 -386 6 -7 7 -1 3 17 -7 31 -268 435 -296 459 -11 9 -48 22 -82 28 -35 6 -180 31 -323 56 -267 47 -340 60 -528 95 -121 22 -141 23 -177 8z"/>
<path d="M776 2367 c-15 -11 9 -18 156 -46 534 -104 1071 -210 1072 -213 3 -4 220 -306 293 -407 43 -59 53 -69 53 -49 0 15 -59 109 -161 254 -88 126 -167 235 -174 243 -7 7 -105 30 -216 52 -112 21 -373 70 -579 108 -206 39 -386 71 -400 71 -15 0 -34 -6 -44 -13z"/>
<path d="M3815 2323 c4 -10 101 -286 217 -613 208 -590 245 -689 441 -1197 l101 -263 193 0 c107 0 193 4 193 9 0 7 -419 1165 -579 1601 -21 58 -69 189 -106 293 l-68 187 -200 0 c-186 0 -199 -1 -192 -17z"/>
<path d="M6045 2323 c4 -10 105 -295 225 -633 213 -600 246 -690 405 -1105 42 -110 88 -230 102 -267 l25 -68 194 0 c107 0 194 3 194 8 0 4 -170 474 -377 1045 l-377 1037 -199 0 c-186 0 -199 -1 -192 -17z"/>
<path d="M8275 2323 c3 -10 73 -207 155 -438 253 -714 302 -849 456 -1248 l149 -387 193 0 c126 0 192 4 192 10 0 6 -102 291 -226 633 -373 1023 -484 1330 -511 1405 l-15 42 -200 0 c-187 0 -200 -1 -193 -17z"/>
<path d="M626 2317 c-16 -12 8 -19 180 -55 110 -23 276 -57 369 -77 94 -19 233 -49 310 -65 385 -80 477 -100 490 -107 12 -7 126 -151 318 -401 43 -56 73 -87 75 -78 2 8 -2 25 -9 38 -11 21 -367 498 -372 498 -2 0 -541 109 -1108 224 -193 39 -226 42 -253 23z"/>
<path d="M475 2266 c-16 -8 -26 -15 -22 -15 4 -1 157 -35 340 -76 183 -42 503 -114 712 -161 209 -47 396 -90 416 -95 27 -7 52 -29 109 -96 250 -295 344 -403 351 -403 22 0 -22 69 -118 186 -58 71 -148 182 -199 247 -52 64 -97 117 -100 117 -3 0 -78 16 -167 35 -89 20 -214 47 -277 61 -63 14 -185 40 -270 59 -85 19 -209 46 -275 60 -196 42 -207 45 -290 65 -119 28 -175 33 -210 16z"/>
<path d="M421 2187 c-6 -8 -14 -29 -17 -46 l-7 -33 41 21 41 21 308 -75 c169 -42 466 -114 658 -161 461 -112 482 -119 519 -157 17 -18 121 -128 230 -244 110 -117 201 -213 203 -213 1 0 3 11 3 24 0 17 -52 82 -177 223 -98 109 -203 224 -233 256 l-55 58 -130 30 c-131 30 -287 67 -949 224 -198 47 -374 85 -391 85 -18 0 -38 -6 -44 -13z"/>
<path d="M476 2091 c-3 -5 -28 -17 -55 -27 -40 -14 -50 -23 -59 -51 -12 -39 -17 -39 94 0 l60 21 125 -34 c257 -68 300 -80 544 -144 206 -55 300 -86 534 -179 l285 -112 144 -135 c259 -243 272 -254 272 -231 0 41 -390 441 -468 480 -49 25 -251 103 -332 129 -54 17 -931 242 -1065 273 -22 6 -47 12 -57 15 -9 3 -19 1 -22 -5z"/>
<path d="M450 1950 c-36 -10 -77 -21 -92 -24 -17 -4 -29 -16 -36 -36 -13 -36 -18 -35 103 -15 50 8 107 15 127 15 55 0 471 -122 628 -185 244 -97 623 -246 764 -301 120 -47 149 -63 215 -118 146 -123 275 -225 279 -221 23 22 -60 106 -357 362 -26 22 -145 74 -411 181 -419 167 -424 168 -710 247 -113 31 -252 70 -309 86 -118 33 -114 33 -201 9z"/>
<path d="M3418 1363 c-108 -269 -253 -627 -322 -798 -69 -170 -126 -311 -126 -312 0 -2 86 -2 192 -1 l191 3 74 180 c41 99 113 274 160 390 47 116 114 279 149 364 35 85 65 160 66 166 3 14 -174 495 -182 495 -3 0 -94 -219 -202 -487z"/>
<path d="M5678 1438 c-92 -227 -235 -582 -319 -788 -83 -206 -153 -381 -156 -388 -4 -10 35 -12 188 -10 l194 3 98 240 c54 132 124 305 157 385 32 80 90 221 128 313 l69 169 -91 244 c-50 134 -93 244 -96 244 -3 0 -81 -186 -172 -412z"/>
<path d="M7922 1473 c-84 -208 -228 -567 -321 -798 l-170 -420 186 -3 c103 -1 190 1 194 5 4 5 40 87 79 183 39 96 110 269 157 385 47 116 114 279 149 364 35 85 64 162 64 170 0 20 -173 491 -180 491 -3 0 -74 -170 -158 -377z"/>
<path d="M382 1811 c-84 -7 -105 -18 -99 -51 2 -12 33 -16 182 -20 177 -6 181 -6 270 -42 139 -55 251 -99 480 -188 116 -45 255 -99 310 -120 217 -85 433 -168 500 -193 80 -31 173 -83 315 -179 55 -38 104 -68 110 -68 16 0 12 26 -7 48 -28 33 -313 242 -358 262 -35 17 -204 84 -515 205 -47 18 -182 71 -300 117 -374 147 -424 166 -544 202 -124 38 -159 41 -344 27z"/>
<path d="M257 1683 c-4 -3 -7 -14 -7 -24 0 -18 9 -21 200 -56 88 -15 273 -77 540 -180 85 -33 252 -97 370 -143 118 -45 256 -98 305 -117 50 -19 131 -50 180 -68 239 -89 339 -130 439 -181 102 -51 109 -54 122 -37 7 10 14 21 14 24 0 3 -57 40 -127 82 -128 76 -165 93 -428 193 -77 29 -205 78 -285 109 -80 31 -208 80 -285 110 -77 29 -212 82 -300 116 -409 158 -379 149 -530 164 -157 16 -199 18 -208 8z"/>
<path d="M240 1562 c0 -26 6 -30 73 -54 39 -15 198 -75 352 -133 154 -59 294 -111 310 -116 17 -5 39 -13 50 -19 11 -5 184 -71 385 -147 201 -75 487 -182 635 -238 l270 -102 22 26 c11 14 19 29 17 33 -4 6 -260 109 -434 175 -36 13 -81 31 -100 38 -63 25 -704 268 -745 282 -22 7 -49 18 -60 23 -29 13 -348 133 -435 163 -69 24 -321 97 -334 97 -3 0 -6 -13 -6 -28z"/>
<path d="M230 1456 c0 -20 17 -33 103 -81 56 -32 119 -68 139 -81 43 -27 62 -35 373 -150 127 -46 239 -89 250 -93 11 -5 106 -41 210 -79 324 -120 707 -261 785 -291 99 -38 100 -39 137 -16 40 24 41 30 6 43 -69 25 -774 289 -913 342 -85 33 -216 82 -290 109 -364 134 -497 187 -632 251 -80 39 -151 70 -157 70 -6 0 -11 -11 -11 -24z"/>
<path d="M230 1351 c0 -26 14 -40 106 -113 59 -46 120 -93 138 -105 17 -12 148 -65 291 -118 143 -52 289 -106 325 -120 36 -13 202 -74 370 -135 168 -61 346 -126 395 -145 203 -75 191 -72 221 -50 14 11 27 24 28 29 0 4 -21 17 -49 27 -366 134 -520 191 -680 251 -104 39 -239 88 -300 109 -60 22 -119 43 -130 49 -11 5 -110 42 -220 82 -204 74 -217 81 -452 240 l-43 29 0 -30z"/>
<path d="M220 1237 c0 -17 36 -59 128 -148 l127 -125 150 -53 c173 -61 801 -287 920 -331 44 -16 142 -52 219 -80 l138 -50 35 21 c19 12 31 24 28 27 -7 8 -75 35 -180 72 -44 16 -143 52 -220 80 -77 28 -194 71 -260 95 -66 23 -219 79 -340 123 -121 44 -274 99 -340 123 -127 45 -141 54 -302 196 -46 40 -87 73 -93 73 -5 0 -10 -10 -10 -23z"/>
<path d="M220 1123 c1 -21 31 -64 113 -162 l112 -133 140 -50 c77 -27 169 -61 205 -73 36 -13 207 -74 380 -135 173 -61 338 -120 365 -130 117 -43 222 -80 231 -80 5 0 23 11 39 24 23 19 26 26 15 30 -8 3 -105 37 -215 77 -110 39 -243 86 -295 104 -52 19 -178 64 -280 100 -102 37 -268 96 -370 132 l-185 65 -70 71 c-38 40 -94 98 -123 130 -29 31 -55 57 -58 57 -2 0 -4 -12 -4 -27z"/>
<path d="M218 1008 c3 -20 43 -88 103 -174 l99 -142 87 -31 c190 -67 982 -344 1051 -368 l73 -24 36 22 c24 15 32 24 22 28 -8 2 -95 33 -194 68 -99 36 -274 98 -390 138 -317 110 -627 221 -655 235 -14 6 -70 72 -125 145 -55 74 -103 134 -106 134 -3 1 -3 -14 -1 -31z"/>
<path d="M210 893 c0 -40 60 -130 146 -220 55 -57 93 -85 189 -138 66 -36 158 -80 205 -96 93 -34 347 -122 593 -205 l159 -54 29 21 c17 12 28 23 26 25 -3 3 -80 31 -173 64 -163 56 -770 267 -904 314 l-65 22 -95 142 c-52 78 -98 145 -102 148 -5 4 -8 -6 -8 -23z"/>
<path d="M1041 266 c26 -22 303 -166 320 -166 32 1 80 37 59 44 -8 3 -94 33 -191 66 -160 55 -200 67 -188 56z"/>
</g>
</svg>