<?xml version="1.0" standalone="no"?>
<!DOCTYPE svg PUBLIC "-//W3C//DTD SVG 20010904//EN"
 "http://www.w3.org/TR/2001/REC-SVG-20010904/DTD/svg10.dtd">
<svg version="1.0" xmlns="http://www.w3.org/2000/svg"
 width="754.000000pt" height="752.000000pt" viewBox="0 0 754.000000 752.000000"
 preserveAspectRatio="xMidYMid meet">


<!-- Change colors in the g fill -->
<g transform="translate(0.000000,752.000000) scale(0.100000,-0.100000)"
fill="#000000" stroke="none">
<path d="M3281 7363 c-30 -15 -56 -34 -58 -40 -5 -13 -10 -12 222 -43 88 -12
340 -50 560 -85 670 -107 1381 -222 1553 -251 154 -26 189 -27 166 -4 -37 37
-2049 424 -2319 446 -64 6 -75 3 -124 -23z"/>
<path d="M2975 7253 c-51 -11 -115 -35 -115 -43 0 -5 8 -11 18 -14 34 -10 422
-78 1532 -266 619 -105 1147 -196 1174 -202 36 -8 60 -21 92 -53 42 -43 169
-231 354 -525 52 -83 107 -166 123 -183 l27 -32 -21 60 c-76 216 -356 701
-468 809 l-40 40 -593 97 c-1892 311 -2010 329 -2083 312z"/>
<path d="M2556 7111 c-87 -35 -83 -40 54 -70 53 -12 1798 -331 2135 -391 127
-23 349 -64 495 -91 146 -28 292 -56 326 -62 60 -10 61 -12 100 -71 94 -145
763 -1123 804 -1176 l20 -25 0 30 c0 39 -78 180 -266 477 -254 402 -514 785
-569 840 -42 42 -151 71 -476 128 -716 125 -1411 248 -1869 331 -559 102 -670
114 -754 80z"/>
<path d="M2185 6982 c-68 -23 -71 -45 -8 -65 69 -23 94 -28 1643 -332 1546
-304 1739 -343 1758 -358 7 -6 192 -258 409 -561 507 -705 531 -736 556 -736
54 0 -172 358 -644 1020 -316 445 -274 401 -416 438 -196 51 -462 105 -1248
251 -1350 252 -1960 362 -1992 361 -4 -1 -30 -9 -58 -18z"/>
<path d="M1744 6836 c-18 -8 -34 -18 -38 -24 -21 -34 47 -51 1209 -292 1063
-221 2335 -490 2459 -520 65 -16 128 -37 138 -47 33 -30 238 -287 548 -688
162 -209 321 -414 354 -455 73 -90 166 -190 178 -190 13 0 9 47 -7 87 -8 19
-68 108 -132 197 -101 139 -880 1177 -908 1211 -6 7 -517 115 -1135 240 -619
124 -1390 280 -1713 345 -749 152 -875 170 -953 136z"/>
<path d="M1378 6699 c-54 -8 -130 -38 -142 -57 -2 -4 154 -43 347 -86 1227
-271 3775 -855 3807 -871 71 -37 145 -116 561 -602 522 -608 676 -783 691
-783 7 0 8 13 5 35 -11 67 -146 253 -481 665 -83 102 -239 295 -347 430 -108
135 -230 283 -271 330 l-75 85 -204 43 c-497 105 -3016 658 -3284 721 -241 56
-360 79 -440 86 -38 3 -79 8 -90 9 -11 2 -46 -1 -77 -5z"/>
<path d="M1183 6479 c-18 -5 -39 -20 -47 -32 -11 -16 -66 -195 -66 -215 0 -1
51 25 114 58 l113 60 314 -75 c1957 -474 3374 -824 3556 -881 234 -72 222 -63
550 -413 540 -574 958 -1011 967 -1011 3 0 6 20 6 43 0 38 -9 56 -61 128 -72
100 -324 397 -574 674 -230 256 -603 662 -643 698 -27 26 -80 40 -623 167
-327 76 -1003 235 -1504 354 -1567 371 -1951 457 -2030 455 -22 0 -55 -5 -72
-10z"/>
<path d="M1275 6176 c-16 -12 -76 -41 -131 -65 -126 -53 -161 -89 -179 -184
-7 -36 -6 -37 23 -37 16 0 117 30 223 67 l193 67 116 -31 c488 -129 1683 -447
1893 -504 294 -80 532 -153 773 -240 302 -108 1378 -532 1406 -553 14 -12 194
-179 400 -371 691 -649 758 -706 758 -645 0 104 -1043 1183 -1284 1329 -65 39
-282 131 -546 232 -263 101 -391 144 -579 195 -582 158 -2972 764 -3011 764
-14 -1 -38 -11 -55 -24z"/>
<path d="M1400 5833 c-14 -2 -124 -30 -245 -61 -246 -63 -262 -72 -295 -159
-33 -89 -37 -88 340 -27 104 17 208 27 280 27 108 1 128 -2 320 -51 357 -92
878 -250 1230 -374 306 -106 2595 -1014 2708 -1073 116 -61 201 -125 579 -437
254 -210 458 -368 474 -368 24 0 19 34 -12 86 -60 99 -296 327 -789 759 l-215
189 -150 72 c-188 90 -619 270 -1245 519 -555 221 -765 300 -1005 378 -140 46
-1563 448 -1770 501 -68 17 -168 27 -205 19z"/>
<path d="M1160 5410 c-295 -22 -380 -43 -401 -97 -5 -15 -8 -37 -4 -50 10 -40
8 -40 720 -73 116 -5 247 -16 293 -25 60 -12 274 -91 760 -282 841 -329 2472
-963 2807 -1090 508 -192 651 -266 1160 -601 279 -184 329 -213 351 -205 34
13 0 97 -68 162 -75 74 -603 466 -843 628 -115 77 -229 126 -979 419 -276 108
-730 286 -1011 396 -1553 610 -1852 719 -2170 794 -94 22 -138 26 -305 29
-107 2 -247 -1 -310 -5z"/>
<path d="M698 5049 c-20 -8 -28 -19 -33 -50 -12 -72 -5 -75 400 -154 535 -104
697 -160 2610 -897 528 -204 1160 -446 1405 -538 761 -287 1006 -388 1315
-542 212 -106 259 -124 287 -111 13 6 33 28 45 50 l23 40 -43 30 c-108 77
-517 318 -674 396 -152 77 -320 145 -988 400 -352 135 -793 305 -980 377 -818
317 -2011 776 -2131 820 -260 97 -369 119 -734 155 -322 31 -467 38 -502 24z"/>
<path d="M643 4763 c-4 -10 -8 -40 -8 -66 0 -58 21 -79 112 -114 1062 -403
1487 -563 1853 -698 124 -46 468 -176 765 -290 297 -114 952 -361 1455 -550
503 -189 1077 -405 1274 -480 l360 -136 23 28 c50 60 84 114 81 130 -2 10 -32
28 -73 45 -373 155 -684 280 -965 388 -551 211 -1437 548 -2065 785 -324 123
-745 282 -935 355 -485 186 -894 336 -1040 382 -165 52 -682 202 -745 217 -27
7 -58 14 -68 17 -11 3 -20 -1 -24 -13z"/>
<path d="M612 4438 c-21 -80 7 -104 377 -317 143 -83 280 -163 303 -178 86
-53 239 -117 736 -302 279 -105 647 -242 817 -306 171 -64 787 -294 1370 -510
583 -216 1231 -457 1440 -536 448 -168 451 -169 554 -103 77 48 92 67 71 88
-13 13 -2514 957 -3650 1378 -791 292 -1102 418 -1550 623 -281 129 -433 195
-449 195 -6 0 -14 -15 -19 -32z"/>
<path d="M603 4130 c7 -77 27 -108 129 -197 91 -80 445 -357 533 -417 128 -89
464 -217 3035 -1156 283 -104 667 -245 852 -314 527 -195 551 -201 624 -147
54 39 87 77 79 90 -15 25 -132 71 -728 290 -342 126 -750 277 -907 336 -157
59 -566 210 -910 335 -344 126 -764 281 -935 345 -170 64 -395 148 -500 187
-403 149 -504 202 -953 500 -172 115 -315 208 -319 208 -3 0 -3 -27 0 -60z"/>
<path d="M587 3843 c-4 -3 -7 -23 -7 -44 0 -60 66 -137 404 -471 l310 -307
105 -37 c528 -184 2266 -810 3480 -1254 l414 -151 66 40 c70 42 111 76 111 91
0 26 -172 90 -2800 1042 -1112 402 -1136 411 -1238 461 -110 55 -196 118 -442
328 -350 299 -382 323 -403 302z"/>
<path d="M580 3492 c0 -84 55 -165 388 -566 129 -155 235 -282 237 -284 3 -3
769 -276 1440 -514 281 -99 857 -304 1280 -455 871 -312 961 -343 988 -343 24
0 143 84 158 111 7 13 7 25 2 30 -10 10 -214 84 -878 319 -231 81 -775 275
-1210 430 -434 155 -992 354 -1240 441 l-449 159 -54 53 c-30 28 -176 180
-324 337 -268 282 -316 330 -330 330 -5 0 -8 -21 -8 -48z"/>
<path d="M572 3178 c8 -95 86 -229 383 -658 l180 -259 115 -41 c255 -92 3218
-1127 3252 -1137 35 -10 41 -8 110 36 73 47 106 77 96 87 -3 2 -151 56 -329
118 -178 63 -412 145 -519 184 -107 39 -604 214 -1105 390 -904 318 -1458 518
-1525 552 -56 29 -151 140 -457 535 -93 121 -178 227 -188 235 -17 14 -18 12
-13 -42z"/>
<path d="M555 2877 c-12 -29 2 -109 28 -169 76 -172 326 -476 533 -647 51 -42
162 -118 247 -169 172 -102 515 -274 647 -322 215 -80 825 -293 1464 -511
l698 -239 76 58 c42 31 75 62 73 67 -8 21 -115 59 -1841 659 -690 240 -1277
445 -1305 455 l-50 18 -250 371 c-137 204 -264 388 -282 409 -27 33 -32 36
-38 20z"/>
<path d="M2903 1047 c87 -69 800 -435 863 -444 50 -6 129 25 170 68 24 25 26
31 14 43 -25 24 -1009 356 -1052 355 -23 0 -23 0 5 -22z"/>
</g>
</svg>
